<?xml version='1.0' encoding='utf-8'?>
<svg xmlns="http://www.w3.org/2000/svg" version="1.1" width="600px" height="976px" viewBox="0 0 600 976"> <g id="layer1"> <g style="fill:rgb(0,0,0); fill-opacity:1.0; stroke-linejoin: miter"> <path d="M324.79703,489.1338C323.7177,489.1947,322.738,489.51575,321.8856,490.09692C321.18265,490.57294,320.23615,491.61353,319.37268,492.84784C319.06827,493.29065,319.05167,493.3017,318.95203,493.21313C318.89114,493.16333,318.84686,493.07477,318.84686,493.0194C318.84686,492.8589,318.73615,492.39395,318.67526,492.3054C318.63098,492.23346,318.61438,492.23895,318.54242,492.3275C318.476,492.41608,318.4594,492.6209,318.4594,493.3017C318.4594,494.29248,318.5037,494.18176,317.7343,495.12827C316.58856,496.54523,315.40405,497.44193,314.16974,497.84045C313.62177,498.01758,312.61438,498.05634,312.01105,497.92346C311.4631,497.8017,310.53873,497.47513,310.47784,497.38104C310.4502,497.34784,310.36716,497.18732,310.28412,497.03784C310.0904,496.6615,309.8524,496.3792,309.07196,495.5932C308.7011,495.22235,308.33026,494.80725,308.24722,494.66333C308.09225,494.39764,307.9428,493.9272,307.9428,493.6836C307.9428,493.60614,307.89297,493.49542,307.8321,493.44006C307.73248,493.34598,307.72693,493.3515,307.69925,493.47327C307.68265,493.54523,307.66052,494.18176,307.65497,494.89026C307.64392,495.7482,307.61624,496.19653,307.57748,496.2353C307.5332,496.27954,307.45572,496.2851,307.30072,496.2408C306.96863,496.15225,305.91144,496.01385,305.56827,496.01385C305.11438,496.01385,304.27304,496.15778,303.76382,496.32385C301.80994,496.9604,299.98892,498.70947,298.976,500.90686C298.67157,501.57108,298.41144,502.3847,298.11807,503.5969C297.5867,505.7888,297.5701,505.8386,297.476,505.822C297.37085,505.8054,296.3247,504.798,296.02582,504.42163C295.7657,504.09506,295.6162,503.75742,295.57196,503.36444C295.5498,503.18732,295.49445,503.01572,295.45016,502.9825C295.24536,502.8109,295.23984,502.93268,295.23984,506.46405C295.2343,508.34045,295.2177,509.91794,295.19,509.97327C295.1236,510.11166,294.89667,510.17255,294.32654,510.20023C293.87823,510.22235,293.72876,510.25555,293.31366,510.42715L292.82654,510.6264L292.14575,510.5434C291.4151,510.45483,290.47968,510.23895,289.4557,509.92346C287.75644,509.40317,287.58487,509.3423,287.47415,509.22607C287.30258,509.0434,287.14758,508.6504,287.08118,508.2519C287.0203,507.8755,286.94833,507.74268,286.85422,507.83676C286.82654,507.86444,286.7823,508.14673,286.76566,508.46222C286.738,508.81647,286.69925,509.0434,286.6605,509.05447C286.62177,509.07108,286.25092,508.9936,285.8247,508.88843C285.03873,508.6947,284.6568,508.6006,283.92065,508.44006C283.46124,508.34045,283.21216,508.25742,283.1734,508.18546C283.1568,508.16333,283.11807,508.0139,283.0904,507.84784C282.9963,507.33307,282.78043,507.0065,282.0332,506.24268C281.31363,505.5065,281.10883,505.2021,281.05902,504.798C281.04242,504.67072,280.98706,504.52124,280.93726,504.4604C280.85422,504.36627,280.8487,504.37183,280.80994,504.6264C280.79333,504.77588,280.7712,505.5231,280.7712,506.28693C280.76566,507.45483,280.7546,507.68732,280.68265,507.70944C280.63837,507.7316,280.46124,507.72052,280.28412,507.68732C276.74722,507.1006,273.61438,507.322,270.6974,508.37918C270.56454,508.42902,270.44833,508.46774,270.43726,508.46774C270.35422,508.46774,270.46494,508.2353,270.78043,507.7648C271.46677,506.7353,272.10883,505.24634,272.31918,504.1947C272.5406,503.08215,272.58484,501.8755,272.4354,500.8958C272.19186,499.29065,271.41696,497.22052,270.83023,496.61166C270.49814,496.26294,270.24353,496.1855,269.9114,496.32938C269.28595,496.60614,268.54425,497.536,268.13467,498.56C267.9188,499.10242,267.8856,499.20758,267.74167,499.7777C267.24353,501.72052,267.2546,504.2777,267.7583,506.4087C267.81918,506.66333,267.869,506.94006,267.869,507.01758C267.86346,507.1781,267.75275,507.3054,266.1974,508.90503C265.5332,509.59137,264.869,510.3386,264.47598,510.84784C264.24905,511.13565,263.96677,511.56738,263.67896,512.0434C262.8487,513.4327,262.49997,514.63934,262.49997,516.1283C262.49997,518.2039,263.23615,520.0637,264.59778,521.4253C265.20108,522.0286,265.65497,522.3663,266.2915,522.68176C267.6033,523.3349,268.98706,523.5452,270.52026,523.32385C271.20663,523.22424,271.24536,523.2353,271.24536,523.5231C271.24536,523.73895,271.38928,524.43085,271.6273,525.3884C271.95386,526.68915,272.0369,527.1929,272.0369,527.8681C272.0369,528.8589,271.80994,529.501,271.25092,530.05444C270.48154,530.82385,269.20294,531.1947,268.33392,530.90686C268.03503,530.8017,267.56454,530.4862,267.48154,530.3257C267.4151,530.2095,267.54794,530.1098,267.7749,530.1098C268.31732,530.1098,268.88745,529.7002,269.1531,529.1301C269.42435,528.53235,269.3524,527.608,268.98706,527.0102C268.85422,526.7943,268.48892,526.4622,268.2343,526.32935C268.0461,526.22974,267.9188,526.2076,267.45386,526.2076C266.7952,526.2076,266.53503,526.31274,266.09778,526.75555C265.17896,527.691,265.0738,529.1688,265.85422,530.2593C266.75644,531.52124,268.93726,532.0194,270.58118,531.3441C271.107,531.1283,271.4557,530.8847,271.82654,530.4862C272.42435,529.8497,272.68448,529.0969,272.68448,528.0342C272.68448,527.2039,272.60147,526.70575,272.1033,524.49176C271.8487,523.3626,271.8044,522.99176,271.89297,522.8589C271.93726,522.798,271.99814,522.74817,272.03134,522.74817C272.06454,522.74817,272.369,522.56555,272.70663,522.3386C273.72507,521.6633,274.40036,520.8773,274.78226,519.9253C274.95938,519.477,275.1199,518.55817,275.1199,517.9936C275.1199,517.5951,275.0369,517.6504,276.08853,517.3349C276.90775,517.0858,277.1402,517.02496,277.72137,516.91425C279.42618,516.58765,281.05902,516.54895,283.12915,516.7814L283.69925,516.8423L283.9151,517.0803C284.28043,517.4844,284.8782,517.584,285.54797,517.3515C285.67526,517.30725,285.8524,517.2685,285.94647,517.2685C286.19003,517.2685,287.85052,517.63934,289.73245,518.1209C291.76382,518.6356,291.7417,518.6301,293.19186,519.07294C294.7749,519.54895,296.05902,519.8091,296.96124,519.8257C297.81366,519.83673,297.8524,519.86444,297.38745,520.108C296.96677,520.32935,296.56824,520.7002,296.44647,520.977C296.4077,521.0766,296.3745,521.2759,296.3745,521.4198C296.3745,522.46594,298.19556,522.5268,299.20294,521.5194C299.5627,521.15967,299.64575,520.8829,299.64575,519.9585L299.64575,519.23895L299.87823,519.0452C300.55902,518.4585,301.1568,517.6172,301.46677,516.798C301.55533,516.56555,301.69925,516.643,301.8155,516.99176C301.95386,517.4013,301.92065,518.1541,301.74908,518.6522C301.67712,518.8515,301.60516,519.0231,301.58856,519.0397C301.52213,519.08954,301.35052,519.4936,301.37823,519.5268C301.4723,519.6209,301.87085,518.9456,302.08118,518.33124C302.16418,518.0932,302.26382,517.5286,302.26382,517.29614C302.26382,517.0305,302.15314,516.56555,302.00922,516.2611L301.84314,515.89026L302.06458,515.09875C302.18634,514.6615,302.3524,514.0194,302.43542,513.6707C302.69556,512.5471,303.0166,511.34045,303.16605,510.9087C304.00183,508.47882,306.07196,506.24268,308.07562,505.59506C309.14944,505.2519,310.0074,505.2242,311.31918,505.4899C311.48523,505.5231,311.65683,505.57846,311.69556,505.60614C311.7454,505.64487,311.762,505.86075,311.75092,506.44193L311.7343,507.22235L311.56827,507.1947C311.4797,507.1781,311.21402,507.16702,310.9871,507.16702C310.47784,507.16702,310.0904,507.3386,309.65866,507.7648C309.34317,508.07477,309.23248,508.25742,309.1273,508.6615C308.97232,509.22607,309.08856,509.84598,309.38745,510.09506C309.91327,510.53784,310.71585,510.36075,311.42987,509.64117C311.99445,509.07108,312.00552,509.01572,312.01105,507.2611C312.0166,506.32013,312.03873,505.7888,312.07748,505.75003C312.13284,505.6947,312.64206,505.86075,313.5996,506.25928C314.1033,506.46405,315.4871,506.9899,315.74722,507.07294C315.8524,507.10614,316.16235,507.17255,316.43356,507.22235C317.6845,507.43823,318.61438,507.23343,319.85977,506.46405C320.4631,506.0932,320.72324,505.88287,321.42065,505.17993C322.22324,504.37735,322.51108,504.00098,324.1107,501.69836C325.0627,500.32013,326.13098,499.3183,327.14944,498.8423C328.0904,498.39948,329.31366,498.28326,330.60886,498.5102C331.0074,498.5766,331.42804,498.6375,331.5498,498.6375C331.76013,498.643,331.7712,498.6375,331.7657,498.477C331.76013,498.38287,331.57748,497.93454,331.35608,497.48065C331.13467,497.02124,330.87454,496.47327,330.7749,496.26294C330.67526,496.0471,330.46494,495.59875,330.3044,495.26666C330.1439,494.92902,329.93356,494.48065,329.83395,494.27032C328.6439,491.7353,327.61993,489.60428,327.55902,489.53235C327.45386,489.41608,327.18817,489.34412,326.5129,489.23895C325.92065,489.1504,325.2454,489.10614,324.79703,489.1338 Z M326.3856,489.56555C327.35425,489.71497,327.2712,489.6541,327.7085,490.56738C327.91882,491.00464,328.0904,491.4032,328.0904,491.44745C328.0904,491.49176,328.0461,491.53046,327.99078,491.53046C327.8081,491.53046,327.23245,491.4032,327.17712,491.35336C327.14944,491.32568,327.12177,491.06,327.12177,490.76666C327.12177,490.30725,327.1107,490.22974,327.02768,490.21313C326.94464,490.19653,326.92804,490.26294,326.91696,490.76666L326.90036,491.33673L326.0701,491.36996C323.91696,491.45853,322.583,492.2279,321.02213,494.2814C320.762,494.62457,320.5074,494.90686,320.45755,494.90686C320.31918,494.90686,319.28967,493.86072,319.28967,493.72235C319.28967,493.60614,319.33948,493.51758,319.67157,493.0471C321.12177,490.9991,322.2011,490.0526,323.524,489.68176C324.4428,489.41608,325.22324,489.38843,326.3856,489.56555 Z M326.83948,491.72974C326.91696,491.75742,326.92804,491.8958,326.92804,492.67072C326.92804,493.16885,326.91144,493.57843,326.88928,493.57843C326.8616,493.57843,326.607,493.6172,326.31918,493.6615C324.59778,493.93823,323.38007,494.77405,321.96863,496.6615C321.7085,497.00464,321.48154,497.28693,321.45386,497.28693C321.43173,497.28693,321.39297,497.10428,321.37637,496.87735C321.33765,496.40686,321.18817,495.9696,320.95016,495.61536C320.8616,495.48804,320.78412,495.33862,320.78412,495.2888C320.78412,495.21683,321.5867,494.08215,321.71954,493.96588C321.73615,493.94928,321.88007,493.79987,322.0295,493.6338C323.25275,492.2888,324.476,491.70758,326.10886,491.7021C326.4631,491.69653,326.78967,491.71313,326.83948,491.72974 Z M327.93542,491.89026L328.3616,491.97882L328.72693,492.72607C328.9262,493.14117,329.1033,493.53418,329.11993,493.61166C329.15866,493.77216,329.13654,493.77216,328.3118,493.6615C327.99078,493.6172,327.61438,493.57843,327.47046,493.57843C327.2712,493.57843,327.19373,493.55078,327.14944,493.47327C327.12177,493.4124,327.0941,493.04156,327.0941,492.643C327.0941,491.8681,327.1439,491.72418,327.38745,491.77405C327.45386,491.79065,327.70294,491.84045,327.93542,491.89026 Z M328.77673,494.08215C329.07565,494.1375,329.35794,494.21497,329.40222,494.25372C329.45203,494.29248,329.56827,494.49725,329.66788,494.71313C329.76752,494.92346,329.92804,495.27216,330.02213,495.477C330.2214,495.8921,330.21585,496.0471,330.00552,495.99176C329.59595,495.8921,328.95386,495.8423,328.14575,495.8589C327.64206,495.86444,327.19925,495.85336,327.16605,495.83124C327.1107,495.798,327.0941,495.54895,327.0941,494.90686C327.0941,494.1264,327.10516,494.02124,327.19373,493.97144C327.3155,493.89395,328.06827,493.94928,328.77673,494.08215 Z M326.91696,494.96777L326.90036,495.9696L326.5129,496.09137C325.01843,496.57294,323.91144,497.5692,322.3616,499.83307C321.06088,501.7316,320.37454,502.56738,319.49445,503.30908C318.5867,504.07846,317.7177,504.5102,316.74353,504.68176C316.28967,504.75928,316.14575,504.7648,315.69742,504.70392C314.87823,504.59875,313.92065,504.28326,312.65866,503.7021C312.46494,503.61353,312.2823,503.54156,312.2546,503.54156C312.22693,503.54156,312.15497,503.49173,312.0941,503.43085C312.0,503.33676,311.9834,503.2482,311.9834,502.7777C311.9834,502.48438,312.00552,502.2076,312.0332,502.16333C312.0941,502.0692,312.1273,502.0803,313.13467,502.42346C314.13654,502.76666,314.56827,502.84412,315.37085,502.8109C315.89114,502.78326,316.0793,502.75003,316.49445,502.6006C318.2712,501.96405,319.7657,500.55817,321.6033,497.7851C321.95203,497.25928,322.87085,496.0803,323.2085,495.72607C324.24908,494.63565,325.50552,493.98804,326.61255,493.97144L326.92804,493.96588L326.91696,494.96777 Z M319.3616,494.95114C319.82657,495.13934,320.14206,495.37735,320.1033,495.51572C320.06458,495.66516,318.9465,497.22607,318.8524,497.25928C318.8081,497.27588,318.75275,497.25928,318.7251,497.22052C318.64758,497.1098,318.7085,494.97882,318.7915,494.8792C318.8856,494.7685,318.92435,494.77405,319.3616,494.95114 Z M318.4594,496.40686L318.4594,497.79614L317.92252,498.33307C317.28598,498.96405,316.7712,499.35706,316.17343,499.67255C315.238,500.15964,314.37454,500.3423,313.51105,500.22607C312.869,500.14304,312.1107,499.91608,312.0498,499.7888C311.99445,499.68915,312.0,498.35522,312.05536,498.3054C312.07196,498.2888,312.2989,498.29987,312.55902,498.33307C313.36163,498.4438,314.2251,498.27216,315.08856,497.84045C315.97415,497.3921,317.16974,496.3958,317.88376,495.50464C318.24908,495.04523,318.34317,494.95114,318.40958,494.99542C318.43726,495.01202,318.4594,495.64856,318.4594,496.40686 Z M320.69556,496.09692C320.95016,496.54523,321.0166,496.86072,320.99445,497.47513L320.97784,498.04523L320.70663,498.45483C320.0535,499.44006,318.8358,500.84045,318.7251,500.72974C318.69186,500.69653,318.69742,500.536,318.73615,500.32568C318.78043,500.08215,318.7915,499.6615,318.76382,498.99176L318.7251,498.01202L319.11255,497.52496C319.32288,497.25928,319.6273,496.84967,319.7878,496.62274C320.3358,495.85336,320.34686,495.8423,320.4631,495.8589C320.524,495.86996,320.62915,495.97513,320.69556,496.09692 Z M308.6845,496.15778C309.08856,496.36258,309.48154,496.667,309.58118,496.84967C309.65314,496.9936,309.65314,497.0102,309.5701,497.0102C309.5203,497.0102,309.321,496.93268,309.12177,496.84412C308.92804,496.75006,308.75092,496.6781,308.72876,496.6781C308.70663,496.6781,308.524,496.6172,308.3247,496.5397C307.93173,496.39026,307.83765,496.26294,307.94833,496.0526C307.99814,495.9696,308.04242,495.953,308.2085,495.9862C308.3247,496.00836,308.53503,496.08582,308.6845,496.15778 Z M328.87085,496.17993C329.61255,496.2519,330.37085,496.3958,330.4594,496.47882C330.56458,496.57843,331.2454,498.00098,331.2454,498.12274C331.2454,498.25006,331.2454,498.25006,330.5203,498.13934C329.31918,497.95667,327.98523,498.11166,326.95572,498.55444C326.7454,498.643,326.5627,498.69836,326.55167,498.67072C326.5406,498.643,326.61255,498.53784,326.70663,498.43823C327.02768,498.10614,327.1107,497.84045,327.1439,497.0268C327.16052,496.62827,327.19373,496.2851,327.21033,496.2685C327.238,496.2353,327.86346,496.15225,328.17896,496.13013C328.2454,496.13013,328.55536,496.15225,328.87085,496.17993 Z M326.90036,496.51202C326.90036,496.62827,326.87823,496.6449,326.762,496.6338C326.6845,496.62274,326.5904,496.57843,326.5461,496.5397C326.47415,496.47327,326.48523,496.45114,326.60147,496.40686C326.80072,496.32385,326.90036,496.35706,326.90036,496.51202 Z M306.89667,496.51758C307.21216,496.57843,307.51105,496.667,307.55536,496.7113C307.64944,496.79987,307.7048,497.7519,307.64392,498.09506L307.60516,498.28326L306.81366,498.28326C306.3321,498.28326,305.83948,498.31647,305.57935,498.36627C303.81918,498.69836,302.1974,499.8275,300.92987,501.58768C300.1162,502.7279,299.64575,503.85706,299.16974,505.8386C298.51105,508.57846,298.2952,509.29248,297.869,510.15594C297.4926,510.9198,297.19373,511.36258,296.72876,511.83307C296.41327,512.14856,296.23062,512.2814,295.85977,512.453C295.2011,512.76294,294.92987,512.81274,293.9391,512.80725C292.92065,512.8017,292.26752,512.67993,290.68448,512.2039C290.12543,512.03784,289.66052,511.89948,289.6494,511.89948C289.63837,511.89948,289.52213,511.6947,289.39484,511.45114C289.2343,511.14673,289.01843,510.84784,288.71954,510.53232C288.42065,510.21683,288.29333,510.05078,288.3321,510.01202C288.37085,509.97327,288.63098,510.02863,289.13467,510.1781C290.41327,510.56,290.9834,510.69284,291.8856,510.82013C292.16788,510.8589,292.42804,510.9198,292.4557,510.94745C292.48892,510.98065,292.4557,511.09137,292.37823,511.2408C292.1236,511.7279,292.23984,512.1763,292.69373,512.4364C292.99814,512.608,293.3081,512.6356,293.76752,512.54156C294.38745,512.41425,295.0572,511.9936,295.3284,511.56738C295.4557,511.36258,295.54425,510.95853,295.54425,510.56555C295.54425,510.22235,295.54425,510.22235,295.83762,509.94006C296.5074,509.30353,297.12177,508.3183,297.42618,507.39395C297.51474,507.11166,297.65314,507.14487,297.7417,507.47144C297.8856,508.0305,297.78595,508.70023,297.4594,509.3755C297.22693,509.86258,297.20477,510.00098,297.40405,509.7685C297.59222,509.54156,297.8358,509.06,297.99075,508.6006C298.0904,508.3017,298.11807,508.0969,298.11807,507.6375C298.11807,507.11166,298.10147,507.0231,297.95755,506.7076C297.78043,506.32568,297.78043,506.41425,298.00183,505.56183C298.0461,505.37918,298.25092,504.57108,298.44464,503.76294C298.6439,502.95483,298.89297,502.0692,298.9926,501.798C299.44095,500.60797,300.0498,499.6338,301.00183,498.58768C301.92618,497.5692,303.0941,496.83307,304.25092,496.5397C304.94833,496.36258,306.07196,496.3515,306.89667,496.51758 Z M309.40405,497.33673C309.7085,497.46405,309.98523,497.59137,310.01843,497.61902C310.1845,497.75742,310.27307,498.73712,310.14023,498.9198C310.06827,499.01385,310.0461,499.01385,309.58118,498.84784C309.321,498.7482,308.85056,498.60428,308.53503,498.5268C308.2251,498.4438,307.95386,498.34967,307.93173,498.31647C307.85977,498.21683,307.8819,496.9272,307.94833,496.86072C308.0203,496.7888,308.3856,496.91055,309.40405,497.33673 Z M326.8616,497.13196C326.90036,497.47513,326.369,498.12827,325.8044,498.42163C325.49445,498.58215,325.25644,498.58768,325.19556,498.4272C325.09595,498.17255,325.5941,497.4862,326.14206,497.1209C326.3413,496.98804,326.45203,496.95483,326.6236,496.96588C326.81735,496.9825,326.845,496.9991,326.8616,497.13196 Z M325.10147,497.36444C325.10147,497.3755,325.0627,497.49176,325.01843,497.61902C324.8358,498.1449,324.99078,498.71497,325.3616,498.86996C325.56088,498.95853,325.90405,498.953,326.18082,498.86444C326.2417,498.84784,326.16974,498.9364,326.01474,499.0637C325.05167,499.89395,324.321,500.7519,323.1642,502.43454C322.35056,503.61905,321.90775,504.18362,321.26013,504.8589C320.0535,506.1098,318.91882,506.76294,317.67896,506.92346C316.68265,507.05078,315.8524,506.85706,313.95386,506.03784C313.37823,505.7888,312.73615,505.53418,312.53137,505.47327C312.02213,505.3183,311.9834,505.25742,311.9834,504.58768C311.9834,504.00098,312.01105,503.87366,312.1273,503.87366C312.2048,503.87366,312.59225,504.02863,313.11807,504.2611C314.95572,505.0803,316.4668,505.26294,317.65683,504.8146C318.0498,504.65964,318.78043,504.2611,319.19003,503.96774C320.39114,503.10428,320.90588,502.5231,322.7214,499.9438C323.09778,499.4124,323.4963,498.86444,323.60147,498.72607C324.10516,498.08954,324.86346,497.3423,325.00183,497.3423C325.0572,497.3423,325.10147,497.35336,325.10147,497.36444 Z M311.23615,498.0397C311.4797,498.12274,311.70663,498.21683,311.7343,498.25555C311.76752,498.2943,311.7786,498.58215,311.762,498.98065L311.7343,499.63934L311.56827,499.62827C311.4797,499.62827,311.18082,499.51758,310.90958,499.39026L310.41696,499.16333L310.45572,498.9032C310.47784,498.75928,310.51105,498.477,310.52768,498.26666C310.5664,497.82385,310.57196,497.82385,311.23615,498.0397 Z M318.43173,499.036L318.43173,499.58398L318.2657,499.57294C318.17712,499.56183,317.90588,499.5397,317.67343,499.5231C317.43542,499.50098,317.2417,499.46777,317.2417,499.44562C317.2417,499.42346,317.34686,499.3183,317.4797,499.20758C317.607,499.10242,317.85056,498.88657,318.0166,498.73157C318.18265,498.58215,318.3487,498.4604,318.37637,498.47144C318.40958,498.477,318.43173,498.71497,318.43173,499.036 Z M307.58856,498.75372C307.69373,498.8921,307.69925,500.27032,307.5996,500.39764C307.5498,500.453,307.345,500.50836,307.00183,500.5526C305.6845,500.7242,304.5498,501.25555,303.44833,502.21313C303.1273,502.49542,302.9723,502.6504,302.44095,503.23712C302.09778,503.61353,301.41696,504.68176,301.13467,505.27954C300.79703,506.00464,300.54242,506.8017,300.18817,508.24634C299.61255,510.63196,299.46307,511.14673,299.13654,511.92715C298.583,513.2611,297.8524,514.2076,297.0664,514.62274C296.50183,514.9161,296.15314,515.00464,295.40588,515.03784C294.22137,515.0932,293.3413,514.9327,291.00552,514.22424C289.85977,513.8755,289.4557,513.7371,289.4557,513.6873C289.4557,513.6707,289.48892,513.51575,289.5332,513.3441C289.57748,513.17255,289.6273,512.8847,289.6494,512.7021C289.67157,512.5194,289.71033,512.3534,289.74353,512.33673C289.7712,512.3201,290.0867,512.3866,290.44095,512.49176C292.13467,512.98987,293.6236,513.2113,294.54797,513.1117C297.00552,512.8515,298.19,511.34598,299.20294,507.1947C299.66788,505.2685,299.74536,504.97513,299.95016,504.34412C300.3819,503.02124,301.14575,501.7648,302.1808,500.7021C303.18817,499.6615,304.23984,499.02496,305.45203,498.73157C305.85608,498.6375,305.99445,498.6264,306.7749,498.6375C307.42804,498.643,307.52213,498.65964,307.58856,498.75372 Z M309.0,499.02496C309.84686,499.3017,309.99078,499.37366,309.99078,499.50098C309.99078,499.56183,309.90222,499.7888,309.7915,500.00464C309.68634,500.22052,309.60886,500.4087,309.61993,500.4198C309.65866,500.45853,309.90222,500.14304,310.0572,499.86075C310.14023,499.70023,310.25092,499.57843,310.3118,499.56738C310.43356,499.55078,311.66235,500.03784,311.7177,500.13196C311.7786,500.22052,311.77307,501.42715,311.71216,501.4604C311.6845,501.477,311.42987,501.39395,311.14758,501.2777C310.67712,501.08398,309.76938,500.7851,309.3653,500.69653C309.2823,500.67438,308.96124,500.62457,308.65683,500.5803C308.3524,500.54156,308.0701,500.47513,308.02582,500.44193C307.94833,500.3755,307.8487,498.94745,307.91513,498.83124C307.976,498.73712,308.31918,498.798,309.0,499.02496 Z M270.95755,499.29614C271.20663,499.39026,271.46677,499.6504,271.5941,499.9438C271.80994,500.42532,271.7712,501.41608,271.51105,502.26294C271.20108,503.27588,270.40958,504.57108,269.60147,505.40134C268.76566,506.25928,268.4557,506.46405,268.40036,506.18176C268.38376,506.11536,268.33948,505.92163,268.30072,505.75555C268.25644,505.5563,268.22876,505.0305,268.2343,504.20575C268.2343,502.88843,268.31732,502.2353,268.58853,501.37735C269.0867,499.8275,270.05533,498.9696,270.95755,499.29614 Z M312.79706,500.42532C313.52213,500.62457,314.61255,500.63565,315.2214,500.453C315.43173,500.3921,315.61993,500.34784,315.63098,500.36444C315.64758,500.3755,315.61438,500.5139,315.55902,500.66885C315.29337,501.39948,315.7417,501.9364,316.6107,501.9364C316.98154,501.9364,317.04242,501.97513,316.85425,502.09137C316.3118,502.42902,315.0332,502.58398,314.21402,502.4124C313.7823,502.3183,312.79706,502.0028,312.41513,501.83124C311.99445,501.6375,311.9834,501.62088,311.9834,500.94562C311.9834,500.61905,312.0,500.33124,312.02213,500.3146C312.083,500.2482,312.23248,500.27032,312.79706,500.42532 Z M308.86163,500.94562C309.5535,501.06738,311.47415,501.70944,311.69003,501.8921C311.7454,501.9364,311.762,502.10797,311.75092,502.59506L311.7343,503.23712L311.59595,503.2316C311.51843,503.22607,311.2417,503.15964,310.98154,503.08215C310.2454,502.86627,309.54242,502.7611,308.7454,502.7611C307.76013,502.7611,307.0406,502.92163,306.19925,503.32568C304.71033,504.0397,303.40405,505.3017,302.51843,506.8958C301.95386,507.9198,301.6328,508.81647,301.25092,510.43268C300.8745,512.06,300.70294,512.71313,300.47046,513.4493C300.37637,513.74817,300.23245,514.05817,300.19373,514.05817C300.02765,514.05817,299.77856,513.58215,299.69,513.0951C299.61255,512.691,299.5295,512.52496,299.42987,512.5858C299.38007,512.6135,299.36346,513.05634,299.36346,514.1356L299.36346,515.6412L299.20847,515.89026C298.84314,516.4604,298.0738,516.9751,297.26013,517.191C296.78412,517.31274,295.53873,517.31274,294.8579,517.191C294.16052,517.0637,293.23615,516.8257,292.1402,516.477C291.8081,516.3718,291.3321,516.2279,291.08856,516.1615C290.845,516.0951,290.5461,516.0065,290.42435,515.9678C290.30255,515.929,289.5332,515.72974,288.70847,515.52496C287.88928,515.3201,287.18634,515.1264,287.14758,515.0932C287.0535,514.99915,286.98154,513.61536,287.0701,513.56C287.16974,513.49915,288.90775,513.96405,288.97415,514.0692C289.01843,514.1356,288.99075,514.2353,288.8745,514.4678C288.68634,514.8441,288.72507,514.9327,288.94095,514.6117C289.024,514.4844,289.15128,514.3183,289.2177,514.2353L289.33392,514.0858L290.3247,514.3792C291.67526,514.78326,293.03137,515.13196,293.66235,515.2427C294.93542,515.4696,296.05902,515.4032,296.91696,515.0434C297.30994,514.8829,297.92435,514.47327,298.1734,514.2076C298.6162,513.7371,299.20294,512.79614,299.41882,512.1929C299.8118,511.11905,300.0,510.50464,300.27673,509.34784C301.00183,506.34784,301.27304,505.59506,302.06458,504.39395C302.65128,503.49725,303.4594,502.62827,304.25644,502.0305C304.6273,501.75372,304.69373,501.75928,304.6494,502.0637C304.5,503.05447,305.90036,503.4087,307.05167,502.67255C307.66605,502.27954,307.9428,501.8146,307.9428,501.18362C307.9428,501.0563,307.9594,500.94006,307.98154,500.92346C308.0369,500.8681,308.49078,500.87918,308.86163,500.94562 Z M310.26752,503.25372C310.89853,503.4087,311.5904,503.63013,311.6845,503.71313C311.7454,503.76294,311.762,503.94006,311.762,504.4604C311.762,504.83124,311.73984,505.15225,311.71216,505.16885C311.6845,505.18546,311.45203,505.15778,311.19742,505.10797C310.53873,504.97513,309.0498,504.97513,308.524,505.10797C307.7657,505.30725,307.28412,505.50098,306.69742,505.85522C304.92065,506.91794,303.476,508.7943,302.80627,510.90317C302.5129,511.822,302.5074,511.85522,302.1808,513.2279C301.83762,514.6781,301.6273,515.39764,301.5332,515.43085C301.43356,515.46405,300.52582,514.5618,300.52582,514.429C300.52582,514.37366,300.65314,513.953,300.8081,513.4936C300.96307,513.0342,301.25092,511.9825,301.44464,511.15778C301.976,508.9438,302.10883,508.5231,302.5793,507.57108C303.0664,506.58582,303.714,505.71683,304.57748,504.89764C305.53503,503.97882,306.50922,503.44193,307.66605,503.18176C308.20294,503.06,309.64758,503.10428,310.26752,503.25372 Z M296.36346,505.7113C296.75644,505.90503,297.3155,506.4198,297.3155,506.58582C297.3155,506.7519,297.0498,507.45483,296.77304,507.99725C296.33026,508.88287,295.71033,509.7076,295.57748,509.57477C295.48892,509.4862,295.4557,505.75003,295.54425,505.58954C295.5996,505.48438,295.63837,505.47327,295.80994,505.50098C295.92618,505.5231,296.17526,505.6172,296.36346,505.7113 Z M281.69556,506.63565C282.23798,506.90686,282.75275,507.57108,282.7583,507.99173C282.7583,508.14117,282.74722,508.14673,282.58118,508.11905C281.89484,507.99173,281.07562,507.80353,281.02582,507.75372C280.97046,507.69836,280.97046,506.7021,281.02582,506.5526C281.0701,506.43085,281.3524,506.45853,281.69556,506.63565 Z M311.6236,507.69284C311.8284,507.9198,311.57935,508.46774,311.01477,509.03784C310.55536,509.49173,310.17896,509.7242,309.81366,509.77402C309.39297,509.8349,309.2712,509.57477,309.4926,509.08768C309.60886,508.8275,310.345,508.05817,310.68817,507.84784C311.12546,507.57108,311.4631,507.51572,311.6236,507.69284 Z M278.21954,507.77588C279.0941,507.85336,279.50922,507.9087,280.23984,508.036C280.821,508.13565,280.76566,508.036,280.76566,508.97144C280.76566,509.79065,280.76566,509.79617,280.6439,509.79617C280.57193,509.79617,280.1568,509.75742,279.714,509.7076C278.73984,509.5969,276.65866,509.5803,275.86713,509.67438C274.63837,509.82938,273.6808,510.01202,272.7952,510.2777C271.76566,510.58215,270.1937,511.22974,269.96677,511.43454C269.88376,511.5065,269.8782,511.73343,269.9557,511.73343C269.97232,511.73343,270.26013,511.61166,270.6033,511.46222C272.01474,510.8423,273.73615,510.3275,275.17526,510.09506C276.45938,509.89026,279.13837,509.90686,280.01843,510.12274L280.46124,510.23343L280.15128,510.23343C279.24905,510.2445,278.3911,510.8423,278.3856,511.46222C278.3856,511.60614,278.3524,511.7445,278.31918,511.7722C278.28043,511.8054,277.95938,511.84412,277.6107,511.86627C275.96124,511.9604,274.20663,512.33124,272.69556,512.90686C271.6107,513.3275,271.58853,513.3275,271.33948,513.27216C271.21216,513.2445,270.8413,513.2113,270.51474,513.20575C269.90588,513.18915,269.75092,513.13934,269.75092,512.95667C269.75092,512.84595,269.51843,511.6172,269.3247,510.70944C269.24722,510.34412,269.18634,509.9899,269.18634,509.92346C269.1808,509.7353,269.72876,509.1375,270.01105,509.01572C270.56454,508.7777,272.28043,508.2408,273.07193,508.0637C274.583,507.71497,276.3985,507.6098,278.21954,507.77588 Z M281.46307,508.24634C282.321,508.41794,282.71954,508.51758,282.7749,508.57294C282.8081,508.60614,282.83026,508.7279,282.8247,508.8386C282.8081,509.0766,282.65866,509.5637,282.5867,509.60797C282.55902,509.62457,282.5369,509.68546,282.5369,509.74634C282.5369,509.80725,282.55902,509.84598,282.5867,509.82938C282.64758,509.79065,282.8911,509.2814,282.98523,508.9936C283.11255,508.59506,283.11255,508.59506,283.8487,508.76666C285.43173,509.14304,286.6605,509.47513,286.69925,509.536C286.76566,509.64117,286.7546,510.92532,286.68265,510.99725C286.6439,511.036,286.5,511.02496,286.20108,510.953C285.73615,510.8423,285.65866,510.82013,283.8155,510.40503C283.13467,510.25555,282.55902,510.11166,282.53134,510.09506C282.50366,510.07846,282.48154,510.02863,282.48154,509.97882C282.48154,509.8958,282.47046,509.8958,282.3819,509.97882C282.29333,510.06183,282.23798,510.06183,281.76752,509.98438C281.13098,509.8847,281.06458,509.8515,281.02026,509.61905C280.97598,509.3589,280.96494,508.32385,281.00922,508.2519C281.05902,508.17438,281.1199,508.17438,281.46307,508.24634 Z M280.63837,510.21683C280.62177,510.23343,280.57193,510.23895,280.5332,510.22235C280.48892,510.20575,280.50552,510.18915,280.5664,510.18915C280.6273,510.18362,280.6605,510.20023,280.63837,510.21683 Z M282.0941,510.40503C283.80994,510.7316,286.41144,511.34045,286.63837,511.45667C286.738,511.51202,286.74353,511.56738,286.73245,512.24817L286.71585,512.9788L286.49445,512.97327C286.37268,512.9678,285.8856,512.87366,285.4151,512.75745C283.821,512.38104,281.3911,511.95483,280.84314,511.95483C280.7546,511.95483,280.6328,511.92163,280.57748,511.88287C280.48892,511.822,280.49997,511.7943,280.68817,511.57846C280.90405,511.32938,281.04242,510.9198,281.04242,510.53784C281.04242,510.3054,281.0701,510.23895,281.17526,510.23895C281.20847,510.23895,281.6236,510.3109,282.0941,510.40503 Z M287.8782,510.59875C288.2823,510.79248,288.81918,511.27954,288.8579,511.4899C288.88007,511.63934,288.70294,511.6172,287.7952,511.36258L287.04797,511.15225L287.03134,510.83124C287.00366,510.28326,287.1365,510.25003,287.8782,510.59875 Z M268.57748,510.5268C268.66605,510.6375,268.9151,511.75003,269.1808,513.2334C269.20294,513.3607,269.16418,513.3995,268.7989,513.6209C267.5369,514.3792,266.72876,515.3589,266.46307,516.4438C266.3358,516.9696,266.34683,517.9105,266.48523,518.4198C266.67896,519.1283,267.04425,519.7371,267.53134,520.191C267.97968,520.60614,268.76013,521.00464,269.0701,520.96594L269.22507,520.9493L268.97598,520.7002C268.83762,520.5618,268.53873,520.2851,268.3118,520.0858C267.62543,519.48254,267.39297,518.8792,267.53134,518.06C267.67526,517.17993,268.1402,516.53784,269.00366,516.0342C269.44095,515.77405,269.60147,515.72424,269.66788,515.82385C269.70108,515.8847,269.64575,515.6135,270.40958,519.3995C270.8856,521.77954,271.00735,522.4604,270.95203,522.5102C270.73615,522.73157,269.03134,522.8257,268.26196,522.66516C266.5295,522.29987,265.11807,521.2427,264.4151,519.7925C264.0498,519.0342,263.96677,518.6301,263.9723,517.65594C263.9723,516.94745,263.99445,516.7095,264.0996,516.29987C264.26566,515.6633,264.44278,515.2205,264.78595,514.58954C265.10147,513.99725,265.30624,513.7095,265.87637,513.0342C266.44647,512.3534,268.35052,510.4604,268.46124,510.4604C268.49445,510.4604,268.54425,510.4936,268.57748,510.5268 Z M287.60147,511.6781C287.81732,511.73895,288.19925,511.84412,288.4594,511.90503C289.27856,512.11536,289.28967,512.1264,289.28967,512.9844C289.28967,513.3718,289.27304,513.46594,289.18448,513.55444C289.0904,513.64856,289.0461,513.6541,288.8911,513.6098C288.7915,513.5766,288.35977,513.46594,287.93356,513.3552C287.50735,513.25006,287.11438,513.12274,287.06458,513.0784C286.98154,513.001,286.96494,512.89026,286.96494,512.3423C286.96494,511.71683,287.00366,511.56738,287.15866,511.56738C287.18634,511.56738,287.3911,511.6172,287.60147,511.6781 Z M280.23984,512.2371C281.19186,512.3201,282.64206,512.5305,283.7878,512.75745C285.06088,513.012,286.57193,513.3773,286.67157,513.45483C286.72693,513.50464,286.74353,513.7039,286.74353,514.2353C286.74353,514.8386,286.73245,514.95483,286.65497,514.98254C286.60516,514.99915,286.2786,514.9493,285.92435,514.8718C282.92435,514.191,280.32288,513.9364,278.33023,514.119C277.0295,514.2353,275.45203,514.5452,274.5664,514.8552C274.42804,514.905,274.28412,514.9438,274.24536,514.9438C274.20663,514.9438,273.97968,514.75006,273.74722,514.512C273.44833,514.2187,273.17157,514.0028,272.83392,513.81464C272.56824,513.6707,272.3524,513.51575,272.3524,513.477C272.3524,513.3884,272.5461,513.3109,273.5701,512.98987C274.90958,512.5637,276.0166,512.33124,277.22324,512.21497C277.68817,512.16516,279.63098,512.18176,280.23984,512.2371 Z M281.91696,514.5231C282.59778,514.60614,283.85977,514.8054,284.69556,514.96594C285.12177,515.0434,285.20477,515.1707,284.89484,515.2759C284.51843,515.39764,284.0701,515.7851,283.87637,516.1504C283.77673,516.3386,283.6605,516.4936,283.6273,516.4936C283.58856,516.4936,283.26196,516.45483,282.89667,516.4105C282.10516,516.31647,279.7915,516.29987,279.00552,516.3884C278.5129,516.43823,277.6162,516.58765,277.00183,516.7095C276.86346,516.7427,276.44278,516.8534,276.06085,516.9696C275.08118,517.25745,275.07562,517.25745,275.0369,517.0692C274.92065,516.54895,274.8044,516.2002,274.6439,515.8349C274.53873,515.608,274.4557,515.3921,274.4557,515.3534C274.4557,515.2205,276.1162,514.75006,277.16788,514.58954C277.48892,514.5397,277.98706,514.47327,278.2749,514.4456C278.99445,514.3792,281.02026,514.42346,281.91696,514.5231 Z M300.68634,515.49725C301.0129,515.71313,301.2177,515.8958,301.2952,516.0397C301.345,516.13934,301.33392,516.22235,301.21216,516.50464C300.99075,517.04156,300.54242,517.7943,300.18817,518.2371C299.83392,518.6744,299.66788,518.77405,299.61807,518.57477C299.5572,518.3423,299.58484,516.10614,299.65128,515.9788C299.68448,515.9124,299.80072,515.72424,299.90036,515.5637C300.083,515.2869,300.10516,515.2648,300.2657,515.298C300.35977,515.31464,300.54797,515.4087,300.68634,515.49725 Z M288.24905,515.77954C288.74722,515.9013,289.33948,516.0508,289.5664,516.10614C290.07562,516.2334,290.845,516.4493,292.08484,516.81464C294.24908,517.45667,294.86346,517.57294,296.12543,517.57294C296.85608,517.5674,297.1439,517.5452,297.42618,517.4678C297.93542,517.32935,298.52213,517.036,298.8819,516.7427C299.0535,516.60425,299.214,516.4936,299.24722,516.4936C299.3524,516.4936,299.369,516.7205,299.3524,517.8773L299.3358,519.0065L299.03137,519.1615C298.57196,519.3939,298.12915,519.4936,297.42618,519.52124C296.30255,519.57104,295.38376,519.3884,292.9151,518.6246C292.48892,518.49176,291.78043,518.2869,291.33762,518.16516C290.38007,517.8995,289.74353,517.7445,287.5461,517.2353C286.6107,517.01385,286.52765,516.99176,286.49445,516.9364C286.47784,516.91425,286.54425,516.8091,286.63837,516.7039C286.87085,516.45483,286.94278,516.29987,287.01474,515.9124C287.04797,515.7353,287.07562,515.5803,287.07562,515.5692C287.07562,515.51385,287.45755,515.5803,288.24905,515.77954 Z M271.24536,515.6633C271.57748,515.72424,271.80994,515.82935,271.84314,515.92346C271.85422,515.9622,271.78226,516.0397,271.68817,516.08954C271.58853,516.1449,271.33392,516.322,271.11807,516.48254C270.89667,516.643,270.6808,516.7648,270.6365,516.7593C270.5535,516.7427,270.51474,516.60425,270.40958,516.0286C270.3653,515.7685,270.37082,515.691,270.42618,515.6578C270.52582,515.5914,270.8911,515.5969,271.24536,515.6633 Z M272.69003,516.48254C273.1107,516.9364,273.50366,517.6947,273.42618,517.905C273.40958,517.9493,273.2712,518.04895,273.1162,518.1264C272.6236,518.3866,271.94833,518.8515,271.55533,519.2002C271.35052,519.3884,271.16788,519.53235,271.15128,519.51575C271.11807,519.48804,271.0738,519.2943,270.8524,518.2371C270.76382,517.8109,270.69186,517.4124,270.69186,517.3515C270.69186,517.2353,270.95203,516.96405,271.30624,516.7039C271.5996,516.48804,272.20294,516.1615,272.30255,516.1615C272.3524,516.1615,272.5295,516.3054,272.69003,516.48254 Z M273.57562,518.4419C273.6199,518.5194,273.63098,518.77405,273.60883,519.2279C273.56454,520.27405,273.24905,521.08215,272.65128,521.6633C272.3911,521.91797,271.92618,522.1947,271.76013,522.1947C271.6273,522.1947,271.60516,522.1172,271.4391,521.11536C271.38928,520.8109,271.32288,520.47327,271.2952,520.35706C271.22324,520.0692,271.30072,519.91425,271.73245,519.48804C272.1199,519.0951,272.59592,518.7519,273.1107,518.48065C273.47598,518.2869,273.4926,518.2869,273.57562,518.4419 Z M299.3524,519.6707C299.38007,519.91425,299.30255,519.953,298.92065,519.87C298.73798,519.83124,298.57196,519.7814,298.56085,519.7593C298.52765,519.7039,299.0867,519.48254,299.2251,519.49915C299.30255,519.50464,299.3413,519.56,299.3524,519.6707 Z"/> </g> </g> </svg>
