<?xml version="1.0" encoding="utf-8"?>
<svg xmlns="http://www.w3.org/2000/svg" viewBox="0 60 600 200" preserveAspectRatio="xMidYMid meet">
<style type="text/css">
  text {
    text-anchor: middle; font-size: 67px; opacity: 0;
  }
</style>
<g transform="translate(300,125)">
  <g transform="translate(0,0)"><g class="path" style="transform-origin: -274.7px -4.65752px; transform: matrix(1, 0, 0, 1, 0, 84.575); opacity: 0.005; animation: float-btt-in-6364d680-9891-488e-9f27-947fcaf4e9ea 1s linear 0s 1 normal forwards running;"><path d="M17.09-14.81L17.09-46.90L23.45-46.90L23.45-15.48L23.45-15.48Q23.45-11.19 22.51-8.11L22.51-8.11L22.51-8.11Q21.57-5.03 19.83-3.05L19.83-3.05L19.83-3.05Q18.09-1.07 15.68-0.13L15.68-0.13L15.68-0.13Q13.27 0.80 10.32 0.80L10.32 0.80L10.32 0.80Q7.24 0.80 4.52-0.27L4.52-0.27L4.52-0.27Q1.81-1.34 0-3.08L0-3.08L3.08-7.97L3.08-7.97Q4.42-6.57 6.30-5.63L6.30-5.63L6.30-5.63Q8.17-4.69 10.12-4.69L10.12-4.69L10.12-4.69Q13.33-4.69 15.21-6.97L15.21-6.97L15.21-6.97Q17.09-9.25 17.09-14.81L17.09-14.81" fill="#ffffff" stroke="none" stroke-width="none" transform="translate(-286.42498779296875,18.39247350692749)" style="fill: rgb(255, 255, 255);"></path></g><g class="path" style="transform-origin: -249.24px 0.972473px; transform: matrix(1, 0, 0, 1, 0, 84.575); opacity: 0.005; animation: float-btt-in-6364d680-9891-488e-9f27-947fcaf4e9ea 1s linear 0.04125s 1 normal forwards running;"><path d="M40.20-34.84L40.20 0L34.17 0L34.17-34.84L40.20-34.84" fill="#ffffff" stroke="none" stroke-width="none" transform="translate(-286.42498779296875,18.39247350692749)" style="fill: rgb(255, 255, 255);"></path></g><g class="path" style="transform-origin: -249.24px -26.6325px; transform: matrix(1, 0, 0, 1, 0, 84.575); opacity: 0.005; animation: float-btt-in-6364d680-9891-488e-9f27-947fcaf4e9ea 1s linear 0.0825s 1 normal forwards running;"><path d="M37.19-40.80L37.19-40.80L37.19-40.80Q35.44-40.80 34.20-42.04L34.20-42.04L34.20-42.04Q32.96-43.28 32.96-45.02L32.96-45.02L32.96-45.02Q32.96-46.97 34.10-48.11L34.10-48.11L34.10-48.11Q35.24-49.25 37.19-49.25L37.19-49.25L37.19-49.25Q38.93-49.25 40.17-48.01L40.17-48.01L40.17-48.01Q41.41-46.77 41.41-45.02L41.41-45.02L41.41-45.02Q41.41-43.08 40.27-41.94L40.27-41.94L40.27-41.94Q39.13-40.80 37.19-40.80" fill="#ffffff" stroke="none" stroke-width="none" transform="translate(-286.42498779296875,18.39247350692749)" style="fill: rgb(255, 255, 255);"></path></g><g class="path" style="transform-origin: -210.045px 0.572479px; transform: matrix(1, 0, 0, 1, 0, 84.575); opacity: 0.005; animation: float-btt-in-6364d680-9891-488e-9f27-947fcaf4e9ea 1s linear 0.12375s 1 normal forwards running;"><path d="M56.75-34.84L56.75-29.01L56.75-29.01Q58.63-31.83 61.47-33.73L61.47-33.73L61.47-33.73Q64.32-35.64 68.07-35.64L68.07-35.64L68.07-35.64Q72.23-35.64 74.84-33.67L74.84-33.67L74.84-33.67Q77.45-31.69 78.59-28.27L78.59-28.27L78.59-28.27Q80.67-31.36 83.52-33.50L83.52-33.50L83.52-33.50Q86.36-35.64 90.58-35.64L90.58-35.64L90.58-35.64Q93.40-35.64 95.51-34.71L95.51-34.71L95.51-34.71Q97.62-33.77 99.03-32.06L99.03-32.06L99.03-32.06Q100.43-30.35 101.14-27.97L101.14-27.97L101.14-27.97Q101.84-25.59 101.84-22.71L101.84-22.71L101.84 0L95.81 0L95.81-22.24L95.81-22.24Q95.81-25.86 94.14-28.11L94.14-28.11L94.14-28.11Q92.46-30.35 89.51-30.35L89.51-30.35L89.51-30.35Q87.97-30.35 86.56-29.75L86.56-29.75L86.56-29.75Q85.16-29.15 83.88-28.11L83.88-28.11L83.88-28.11Q82.61-27.07 81.47-25.69L81.47-25.69L81.47-25.69Q80.33-24.32 79.40-22.85L79.40-22.85L79.40 0L73.37 0L73.37-22.24L73.37-22.24Q73.37-25.86 71.69-28.11L71.69-28.11L71.69-28.11Q70.02-30.35 67.07-30.35L67.07-30.35L67.07-30.35Q65.59-30.35 64.19-29.78L64.19-29.78L64.19-29.78Q62.78-29.21 61.47-28.21L61.47-28.21L61.47-28.21Q60.17-27.20 59.03-25.86L59.03-25.86L59.03-25.86Q57.89-24.52 56.95-23.05L56.95-23.05L56.95 0L50.92 0L50.92-34.84L56.75-34.84" fill="#ffffff" stroke="none" stroke-width="none" transform="translate(-286.42498779296875,18.39247350692749)" style="fill: rgb(255, 255, 255);"></path></g><g class="path" style="transform-origin: -148.735px 0.572479px; transform: matrix(1, 0, 0, 1, 0, 84.575); opacity: 0.005; animation: float-btt-in-6364d680-9891-488e-9f27-947fcaf4e9ea 1s linear 0.165s 1 normal forwards running;"><path d="M118.05-34.84L118.05-29.01L118.05-29.01Q119.93-31.83 122.78-33.73L122.78-33.73L122.78-33.73Q125.63-35.64 129.38-35.64L129.38-35.64L129.38-35.64Q133.53-35.64 136.14-33.67L136.14-33.67L136.14-33.67Q138.76-31.69 139.90-28.27L139.90-28.27L139.90-28.27Q141.97-31.36 144.82-33.50L144.82-33.50L144.82-33.50Q147.67-35.64 151.89-35.64L151.89-35.64L151.89-35.64Q154.70-35.64 156.81-34.71L156.81-34.71L156.81-34.71Q158.92-33.77 160.33-32.06L160.33-32.06L160.33-32.06Q161.74-30.35 162.44-27.97L162.44-27.97L162.44-27.97Q163.15-25.59 163.15-22.71L163.15-22.71L163.15 0L157.12 0L157.12-22.24L157.12-22.24Q157.12-25.86 155.44-28.11L155.44-28.11L155.44-28.11Q153.77-30.35 150.82-30.35L150.82-30.35L150.82-30.35Q149.28-30.35 147.87-29.75L147.87-29.75L147.87-29.75Q146.46-29.15 145.19-28.11L145.19-28.11L145.19-28.11Q143.92-27.07 142.78-25.69L142.78-25.69L142.78-25.69Q141.64-24.32 140.70-22.85L140.70-22.85L140.70 0L134.67 0L134.67-22.24L134.67-22.24Q134.67-25.86 133.00-28.11L133.00-28.11L133.00-28.11Q131.32-30.35 128.37-30.35L128.37-30.35L128.37-30.35Q126.90-30.35 125.49-29.78L125.49-29.78L125.49-29.78Q124.08-29.21 122.78-28.21L122.78-28.21L122.78-28.21Q121.47-27.20 120.33-25.86L120.33-25.86L120.33-25.86Q119.19-24.52 118.26-23.05L118.26-23.05L118.26 0L112.23 0L112.23-34.84L118.05-34.84" fill="#ffffff" stroke="none" stroke-width="none" transform="translate(-286.42498779296875,18.39247350692749)" style="fill: rgb(255, 255, 255);"></path></g><g class="path" style="transform-origin: -100.9px 8.34247px; transform: matrix(1, 0, 0, 1, 0, 84.575); opacity: 0.005; animation: float-btt-in-6364d680-9891-488e-9f27-947fcaf4e9ea 1s linear 0.20625s 1 normal forwards running;"><path d="M174.40 15.54L174.40 15.54L174.40 15.54Q172.39 15.54 170.88 15.14L170.88 15.14L170.88 15.14Q169.38 14.74 168.51 14.20L168.51 14.20L169.85 9.18L169.85 9.18Q170.65 9.65 171.82 9.98L171.82 9.98L171.82 9.98Q172.99 10.32 174.54 10.32L174.54 10.32L174.54 10.32Q175.94 10.32 177.18 9.92L177.18 9.92L177.18 9.92Q178.42 9.51 179.56 8.51L179.56 8.51L179.56 8.51Q180.70 7.50 181.74 5.76L181.74 5.76L181.74 5.76Q182.78 4.02 183.78 1.41L183.78 1.41L185.32-2.61L182.11-2.61L168.51-33.23L173.87-35.64L186.86-6.63L196.98-35.38L202.54-33.23L189.74 1.74L189.74 1.74Q188.27 5.76 186.63 8.41L186.63 8.41L186.63 8.41Q184.99 11.06 183.11 12.66L183.11 12.66L183.11 12.66Q181.24 14.27 179.06 14.91L179.06 14.91L179.06 14.91Q176.88 15.54 174.40 15.54" fill="#ffffff" stroke="none" stroke-width="none" transform="translate(-286.42498779296875,18.39247350692749)" style="fill: rgb(255, 255, 255);"></path></g><g class="path" style="transform-origin: -44.755px -5.05753px; transform: matrix(1, 0, 0, 1, 0, 84.575); opacity: 0.005; animation: float-btt-in-6364d680-9891-488e-9f27-947fcaf4e9ea 1s linear 0.2475s 1 normal forwards running;"><path d="M225.32-3.95L228.54-9.31L228.54-9.31Q230.95-7.30 233.96-6.03L233.96-6.03L233.96-6.03Q236.98-4.76 241.00-4.76L241.00-4.76L241.00-4.76Q245.82-4.76 248.64-6.77L248.64-6.77L248.64-6.77Q251.45-8.78 251.45-12.19L251.45-12.19L251.45-12.19Q251.45-13.60 251.05-14.81L251.05-14.81L251.05-14.81Q250.65-16.01 249.47-17.12L249.47-17.12L249.47-17.12Q248.30-18.22 246.19-19.33L246.19-19.33L246.19-19.33Q244.08-20.44 240.73-21.71L240.73-21.71L240.73-21.71Q237.11-23.12 234.60-24.49L234.60-24.49L234.60-24.49Q232.09-25.86 230.55-27.50L230.55-27.50L230.55-27.50Q229.01-29.15 228.34-31.12L228.34-31.12L228.34-31.12Q227.67-33.10 227.67-35.64L227.67-35.64L227.67-35.64Q227.67-38.12 228.70-40.33L228.70-40.33L228.70-40.33Q229.74-42.55 231.79-44.19L231.79-44.19L231.79-44.19Q233.83-45.83 236.81-46.77L236.81-46.77L236.81-46.77Q239.79-47.70 243.61-47.70L243.61-47.70L243.61-47.70Q247.77-47.70 251.05-46.87L251.05-46.87L251.05-46.87Q254.33-46.03 257.55-44.49L257.55-44.49L255.20-39.06L255.20-39.06Q252.93-40.40 249.88-41.31L249.88-41.31L249.88-41.31Q246.83-42.21 243.48-42.21L243.48-42.21L243.48-42.21Q239.06-42.21 236.51-40.50L236.51-40.50L236.51-40.50Q233.96-38.79 233.96-35.98L233.96-35.98L233.96-35.98Q233.96-34.64 234.33-33.60L234.33-33.60L234.33-33.60Q234.70-32.56 235.81-31.59L235.81-31.59L235.81-31.59Q236.91-30.62 238.89-29.61L238.89-29.61L238.89-29.61Q240.87-28.61 244.15-27.40L244.15-27.40L244.15-27.40Q248.03-25.93 250.71-24.39L250.71-24.39L250.71-24.39Q253.39-22.85 255.00-21.11L255.00-21.11L255.00-21.11Q256.61-19.36 257.31-17.35L257.31-17.35L257.31-17.35Q258.02-15.34 258.02-12.93L258.02-12.93L258.02-12.93Q258.02-9.65 256.74-7.10L256.74-7.10L256.74-7.10Q255.47-4.56 253.23-2.78L253.23-2.78L253.23-2.78Q250.98-1.01 247.83-0.10L247.83-0.10L247.83-0.10Q244.68 0.80 241.00 0.80L241.00 0.80L241.00 0.80Q236.11 0.80 232.09-0.50L232.09-0.50L232.09-0.50Q228.07-1.81 225.32-3.95L225.32-3.95" fill="#ffffff" stroke="none" stroke-width="none" transform="translate(-286.42498779296875,18.39247350692749)" style="fill: rgb(255, 255, 255);"></path></g><g class="path" style="transform-origin: -3.64999px 1.37247px; transform: matrix(1, 0, 0, 1, 0, 84.575); opacity: 0.005; animation: float-btt-in-6364d680-9891-488e-9f27-947fcaf4e9ea 1s linear 0.28875s 1 normal forwards running;"><path d="M299.16-4.36L297.88 0.34L297.88 0.34Q294.67 0.34 292.79-0.94L292.79-0.94L292.79-0.94Q290.91-2.21 290.18-4.62L290.18-4.62L290.18-4.62Q287.83-2.21 284.78-0.70L284.78-0.70L284.78-0.70Q281.74 0.80 278.12 0.80L278.12 0.80L278.12 0.80Q275.84 0.80 273.73 0.10L273.73 0.10L273.73 0.10Q271.62-0.60 269.98-2.14L269.98-2.14L269.98-2.14Q268.34-3.69 267.36-6.16L267.36-6.16L267.36-6.16Q266.39-8.64 266.39-12.19L266.39-12.19L266.39-34.84L272.42-34.84L272.42-13.00L272.42-13.00Q272.42-8.91 274.13-6.73L274.13-6.73L274.13-6.73Q275.84-4.56 279.26-4.56L279.26-4.56L279.26-4.56Q282.07-4.56 284.62-5.66L284.62-5.66L284.62-5.66Q287.16-6.77 289.17-8.64L289.17-8.64L289.17-34.84L295.20-34.84L295.20-9.04L295.20-9.04Q295.20-7.57 295.54-6.67L295.54-6.67L295.54-6.67Q295.87-5.76 296.41-5.26L296.41-5.26L296.41-5.26Q296.94-4.76 297.68-4.56L297.68-4.56L297.68-4.56Q298.42-4.36 299.16-4.36L299.16-4.36" fill="#ffffff" stroke="none" stroke-width="none" transform="translate(-286.42498779296875,18.39247350692749)" style="fill: rgb(255, 255, 255);"></path></g><g class="path" style="transform-origin: 28.71px -3.48253px; transform: matrix(1, 0, 0, 1, 0, 84.575); opacity: 0.005; animation: float-btt-in-6364d680-9891-488e-9f27-947fcaf4e9ea 1s linear 0.33s 1 normal forwards running;"><path d="M308.67-33.57L309.94-44.55L314.57-44.55L314.57-33.57L324.21-33.57L324.21-28.34L314.57-28.34L314.57-11.52L314.57-11.52Q314.57-9.58 315.00-8.24L315.00-8.24L315.00-8.24Q315.44-6.90 316.17-6.10L316.17-6.10L316.17-6.10Q316.91-5.29 317.95-4.92L317.95-4.92L317.95-4.92Q318.99-4.56 320.13-4.56L320.13-4.56L320.13-4.56Q321.80-4.56 323.28-5.09L323.28-5.09L323.28-5.09Q324.75-5.63 326.09-6.37L326.09-6.37L327.76-1.54L327.76-1.54Q326.42-0.74 324.15 0.03L324.15 0.03L324.15 0.03Q321.87 0.80 319.39 0.80L319.39 0.80L319.39 0.80Q314.36 0.80 311.45-2.48L311.45-2.48L311.45-2.48Q308.54-5.76 308.54-11.99L308.54-11.99L308.54-28.34L302.51-28.34L302.51-33.57L308.67-33.57" fill="#ffffff" stroke="none" stroke-width="none" transform="translate(-286.42498779296875,18.39247350692749)" style="fill: rgb(255, 255, 255);"></path></g><g class="path" style="transform-origin: 62.005px -6.39752px; transform: matrix(1, 0, 0, 1, 0, 84.575); opacity: 0.005; animation: float-btt-in-6364d680-9891-488e-9f27-947fcaf4e9ea 1s linear 0.37125s 1 normal forwards running;"><path d="M339.82-49.58L339.82-29.28L339.82-29.28Q341.70-32.03 344.55-33.84L344.55-33.84L344.55-33.84Q347.40-35.64 351.35-35.64L351.35-35.64L351.35-35.64Q357.24-35.64 360.16-32.09L360.16-32.09L360.16-32.09Q363.07-28.54 363.07-22.71L363.07-22.71L363.07 0L357.04 0L357.04-22.04L357.04-22.04Q357.04-25.86 355.33-28.11L355.33-28.11L355.33-28.11Q353.63-30.35 350.41-30.35L350.41-30.35L350.41-30.35Q348.87-30.35 347.36-29.78L347.36-29.78L347.36-29.78Q345.85-29.21 344.51-28.21L344.51-28.21L344.51-28.21Q343.17-27.20 341.97-25.86L341.97-25.86L341.97-25.86Q340.76-24.52 339.82-23.05L339.82-23.05L339.82 0L333.79 0L333.79-49.58L339.82-49.58" fill="#ffffff" stroke="none" stroke-width="none" transform="translate(-286.42498779296875,18.39247350692749)" style="fill: rgb(255, 255, 255);"></path></g><g class="path" style="transform-origin: 100.065px 0.972473px; transform: matrix(1, 0, 0, 1, 0, 84.575); opacity: 0.005; animation: float-btt-in-6364d680-9891-488e-9f27-947fcaf4e9ea 1s linear 0.4125s 1 normal forwards running;"><path d="M401.67-14.94L377.28-14.94L377.28-14.94Q377.88-10.05 380.69-7.30L380.69-7.30L380.69-7.30Q383.51-4.56 388.13-4.56L388.13-4.56L388.13-4.56Q391.15-4.56 393.56-5.19L393.56-5.19L393.56-5.19Q395.97-5.83 398.18-6.83L398.18-6.83L399.59-1.68L399.59-1.68Q397.18-0.54 394.16 0.13L394.16 0.13L394.16 0.13Q391.15 0.80 387.39 0.80L387.39 0.80L387.39 0.80Q383.64 0.80 380.63-0.44L380.63-0.44L380.63-0.44Q377.61-1.68 375.50-3.99L375.50-3.99L375.50-3.99Q373.39-6.30 372.25-9.68L372.25-9.68L372.25-9.68Q371.11-13.07 371.11-17.42L371.11-17.42L371.11-17.42Q371.11-21.31 372.25-24.66L372.25-24.66L372.25-24.66Q373.39-28.01 375.47-30.45L375.47-30.45L375.47-30.45Q377.55-32.90 380.43-34.27L380.43-34.27L380.43-34.27Q383.31-35.64 386.86-35.64L386.86-35.64L386.86-35.64Q390.61-35.64 393.42-34.37L393.42-34.37L393.42-34.37Q396.24-33.10 398.11-30.89L398.11-30.89L398.11-30.89Q399.99-28.68 400.93-25.73L400.93-25.73L400.93-25.73Q401.87-22.78 401.87-19.50L401.87-19.50L401.87-19.50Q401.87-17.15 401.67-14.94L401.67-14.94zM386.72-30.42L386.72-30.42L386.72-30.42Q382.77-30.42 380.26-27.74L380.26-27.74L380.26-27.74Q377.75-25.06 377.21-19.83L377.21-19.83L396.31-19.83L396.31-19.83Q396.31-24.92 393.76-27.67L393.76-27.67L393.76-27.67Q391.21-30.42 386.72-30.42" fill="#ffffff" stroke="none" stroke-width="none" transform="translate(-286.42498779296875,18.39247350692749)" style="fill: rgb(255, 255, 255);"></path></g><g class="path" style="transform-origin: 133.835px 0.572479px; transform: matrix(1, 0, 0, 1, 0, 84.575); opacity: 0.005; animation: float-btt-in-6364d680-9891-488e-9f27-947fcaf4e9ea 1s linear 0.45375s 1 normal forwards running;"><path d="M430.61-35.24L428.80-29.01L428.80-29.01Q427.53-29.55 425.78-29.55L425.78-29.55L425.78-29.55Q423.91-29.55 422.13-28.74L422.13-28.74L422.13-28.74Q420.36-27.94 418.98-26.33L418.98-26.33L418.98-26.33Q417.61-24.72 416.77-22.21L416.77-22.21L416.77-22.21Q415.94-19.70 415.94-16.28L415.94-16.28L415.94 0L409.91 0L409.91-34.84L415.74-34.84L415.74-27.27L415.74-27.27Q416.34-28.88 417.34-30.42L417.34-30.42L417.34-30.42Q418.35-31.96 419.72-33.10L419.72-33.10L419.72-33.10Q421.09-34.24 422.90-34.94L422.90-34.94L422.90-34.94Q424.71-35.64 426.92-35.64L426.92-35.64L426.92-35.64Q427.93-35.64 428.90-35.54L428.90-35.54L428.90-35.54Q429.87-35.44 430.61-35.24L430.61-35.24" fill="#ffffff" stroke="none" stroke-width="none" transform="translate(-286.42498779296875,18.39247350692749)" style="fill: rgb(255, 255, 255);"></path></g><g class="path" style="transform-origin: 158.79px -5.99753px; transform: matrix(1, 0, 0, 1, 0, 84.575); opacity: 0.005; animation: float-btt-in-6364d680-9891-488e-9f27-947fcaf4e9ea 1s linear 0.495s 1 normal forwards running;"><path d="M442.33-49.58L442.33-11.52L442.33-11.52Q442.33-7.91 443.84-6.16L443.84-6.16L443.84-6.16Q445.35-4.42 448.03-4.42L448.03-4.42L448.03-4.42Q449.30-4.42 450.51-4.72L450.51-4.72L450.51-4.72Q451.71-5.03 452.65-5.43L452.65-5.43L454.13-0.54L454.13-0.54Q452.92 0 451.14 0.40L451.14 0.40L451.14 0.40Q449.37 0.80 447.23 0.80L447.23 0.80L447.23 0.80Q444.88 0.80 442.90 0.13L442.90 0.13L442.90 0.13Q440.93-0.54 439.45-1.94L439.45-1.94L439.45-1.94Q437.98-3.35 437.14-5.56L437.14-5.56L437.14-5.56Q436.30-7.77 436.30-10.92L436.30-10.92L436.30-49.58L442.33-49.58" fill="#ffffff" stroke="none" stroke-width="none" transform="translate(-286.42498779296875,18.39247350692749)" style="fill: rgb(255, 255, 255);"></path></g><g class="path" style="transform-origin: 187.87px 0.972473px; transform: matrix(1, 0, 0, 1, 0, 84.575); opacity: 0.005; animation: float-btt-in-6364d680-9891-488e-9f27-947fcaf4e9ea 1s linear 0.53625s 1 normal forwards running;"><path d="M456.47-17.22L456.47-17.22L456.47-17.22Q456.47-21.11 457.68-24.49L457.68-24.49L457.68-24.49Q458.88-27.87 461.06-30.35L461.06-30.35L461.06-30.35Q463.24-32.83 466.29-34.24L466.29-34.24L466.29-34.24Q469.34-35.64 472.95-35.64L472.95-35.64L472.95-35.64Q475.97-35.64 478.41-34.61L478.41-34.61L478.41-34.61Q480.86-33.57 482.67-32.03L482.67-32.03L482.67-34.84L488.16-34.84L488.16-8.44L488.16-8.44Q488.16-5.90 489.40-5.13L489.40-5.13L489.40-5.13Q490.64-4.36 492.12-4.36L492.12-4.36L490.84 0.34L490.84 0.34Q484.41 0.34 483.07-4.89L483.07-4.89L483.07-4.89Q482.27-3.82 481.23-2.78L481.23-2.78L481.23-2.78Q480.19-1.74 478.85-0.94L478.85-0.94L478.85-0.94Q477.51-0.13 475.83 0.34L475.83 0.34L475.83 0.34Q474.16 0.80 472.15 0.80L472.15 0.80L472.15 0.80Q468.87 0.80 466.02-0.47L466.02-0.47L466.02-0.47Q463.17-1.74 461.06-4.09L461.06-4.09L461.06-4.09Q458.95-6.43 457.71-9.75L457.71-9.75L457.71-9.75Q456.47-13.07 456.47-17.22zM473.49-4.56L473.49-4.56L473.49-4.56Q476.04-4.56 478.31-5.76L478.31-5.76L478.31-5.76Q480.59-6.97 482.13-8.91L482.13-8.91L482.13-27.60L482.13-27.60Q480.32-28.88 478.15-29.65L478.15-29.65L478.15-29.65Q475.97-30.42 473.56-30.42L473.56-30.42L473.56-30.42Q471.14-30.42 469.13-29.48L469.13-29.48L469.13-29.48Q467.12-28.54 465.68-26.83L465.68-26.83L465.68-26.83Q464.24-25.13 463.44-22.71L463.44-22.71L463.44-22.71Q462.63-20.30 462.63-17.42L462.63-17.42L462.63-17.42Q462.63-14.61 463.44-12.23L463.44-12.23L463.44-12.23Q464.24-9.85 465.72-8.14L465.72-8.14L465.72-8.14Q467.19-6.43 469.17-5.49L469.17-5.49L469.17-5.49Q471.14-4.56 473.49-4.56" fill="#ffffff" stroke="none" stroke-width="none" transform="translate(-286.42498779296875,18.39247350692749)" style="fill: rgb(255, 255, 255);"></path></g><g class="path" style="transform-origin: 228.37px 0.572479px; transform: matrix(1, 0, 0, 1, 0, 84.575); opacity: 0.005; animation: float-btt-in-6364d680-9891-488e-9f27-947fcaf4e9ea 1s linear 0.5775s 1 normal forwards running;"><path d="M505.98-34.84L505.98-29.01L505.98-29.01Q507.86-31.83 510.77-33.73L510.77-33.73L510.77-33.73Q513.69-35.64 517.71-35.64L517.71-35.64L517.71-35.64Q523.61-35.64 526.52-32.09L526.52-32.09L526.52-32.09Q529.43-28.54 529.43-22.71L529.43-22.71L529.43 0L523.40 0L523.40-22.04L523.40-22.04Q523.40-25.86 521.66-28.11L521.66-28.11L521.66-28.11Q519.92-30.35 516.70-30.35L516.70-30.35L516.70-30.35Q515.16-30.35 513.69-29.78L513.69-29.78L513.69-29.78Q512.22-29.21 510.84-28.21L510.84-28.21L510.84-28.21Q509.47-27.20 508.30-25.86L508.30-25.86L508.30-25.86Q507.12-24.52 506.19-23.05L506.19-23.05L506.19 0L500.16 0L500.16-34.84L505.98-34.84" fill="#ffffff" stroke="none" stroke-width="none" transform="translate(-286.42498779296875,18.39247350692749)" style="fill: rgb(255, 255, 255);"></path></g><g class="path" style="transform-origin: 268.735px -5.99753px; transform: matrix(1, 0, 0, 1, 0, 84.575); opacity: 0.005; animation: float-btt-in-6364d680-9891-488e-9f27-947fcaf4e9ea 1s linear 0.61875s 1 normal forwards running;"><path d="M553.02 0.80L553.02 0.80L553.02 0.80Q549.80 0.80 546.95-0.47L546.95-0.47L546.95-0.47Q544.11-1.74 542.00-4.09L542.00-4.09L542.00-4.09Q539.89-6.43 538.68-9.75L538.68-9.75L538.68-9.75Q537.47-13.07 537.47-17.22L537.47-17.22L537.47-17.22Q537.47-21.17 538.71-24.56L538.71-24.56L538.71-24.56Q539.95-27.94 542.06-30.38L542.06-30.38L542.06-30.38Q544.17-32.83 546.99-34.24L546.99-34.24L546.99-34.24Q549.80-35.64 552.95-35.64L552.95-35.64L552.95-35.64Q556.44-35.64 558.95-34.24L558.95-34.24L558.95-34.24Q561.46-32.83 562.87-31.36L562.87-31.36L562.87-49.58L568.90-49.58L568.90-8.44L568.90-8.44Q568.90-5.90 570.14-5.13L570.14-5.13L570.14-5.13Q571.38-4.36 572.85-4.36L572.85-4.36L571.58 0.34L571.58 0.34Q565.21 0.34 563.81-4.76L563.81-4.76L563.81-4.76Q562.26-2.61 559.65-0.90L559.65-0.90L559.65-0.90Q557.04 0.80 553.02 0.80zM554.36-4.56L554.36-4.56L554.36-4.56Q556.84-4.56 559.08-5.73L559.08-5.73L559.08-5.73Q561.33-6.90 562.87-8.78L562.87-8.78L562.87-26.06L562.87-26.06Q561.59-27.67 559.35-29.04L559.35-29.04L559.35-29.04Q557.11-30.42 554.29-30.42L554.29-30.42L554.29-30.42Q551.88-30.42 549.90-29.41L549.90-29.41L549.90-29.41Q547.93-28.41 546.52-26.67L546.52-26.67L546.52-26.67Q545.11-24.92 544.38-22.55L544.38-22.55L544.38-22.55Q543.64-20.17 543.64-17.42L543.64-17.42L543.64-17.42Q543.64-14.61 544.44-12.26L544.44-12.26L544.44-12.26Q545.25-9.92 546.69-8.21L546.69-8.21L546.69-8.21Q548.13-6.50 550.10-5.53L550.10-5.53L550.10-5.53Q552.08-4.56 554.36-4.56" fill="#ffffff" stroke="none" stroke-width="none" transform="translate(-286.42498779296875,18.39247350692749)" style="fill: rgb(255, 255, 255);"></path></g></g>
</g>
<style id="float-btt-in-6364d680-9891-488e-9f27-947fcaf4e9ea" data-anikit="">@keyframes float-btt-in-6364d680-9891-488e-9f27-947fcaf4e9ea
{
  0% {
    animation-timing-function: cubic-bezier(0.2242,0.7499,0.3142,0.8148);
    transform: matrix(1,0,0,1,0,84.575);
    opacity: 0.005;
  }
  100% {
    transform: matrix(1,0,0,1,0,0);
    opacity: 1;
  }
}</style><style id="float-btt-in-6364d680-9891-488e-9f27-947fcaf4e9ea" data-anikit="">@keyframes float-btt-in-6364d680-9891-488e-9f27-947fcaf4e9ea
{
  0% {
    animation-timing-function: cubic-bezier(0.2242,0.7499,0.3142,0.8148);
    transform: matrix(1,0,0,1,0,84.575);
    opacity: 0.005;
  }
  100% {
    transform: matrix(1,0,0,1,0,0);
    opacity: 1;
  }
}</style></svg>
