<svg xmlns="http://www.w3.org/2000/svg" xmlns:se="http://svg-edit.googlecode.com" xmlns:xlink="http://www.w3.org/1999/xlink" xmlns:dc="http://purl.org/dc/elements/1.1/" xmlns:cc="http://creativecommons.org/ns#" xmlns:rdf="http://www.w3.org/1999/02/22-rdf-syntax-ns#" xmlns:inkscape="http://www.inkscape.org/namespaces/inkscape" width="777" height="480" style="">                                    <title>my vector image</title>                                    <!-- Created with Vector Paint - http://www.vectorpaint.yaks.com/ https://chrome.google.com/webstore/detail/hnbpdiengicdefcjecjbnjnoifekhgdo -->                                    <rect id="backgroundrect" width="100%" height="100%" x="0" y="0" fill="#FFFFFF" stroke="none"/>                                <g class="currentLayer" style=""><title>Layer 1</title><polyline fill="none" stroke="#222222" stroke-width="2" stroke-linejoin="round" stroke-dashoffset="" fill-rule="nonzero" marker-start="" marker-mid="" marker-end="" id="svg_1" points="205.5265217957557,159.70068380717808 206.2067938913593,159.70068380717808 207.56733808256647,159.70068380717808 209.6081543693772,159.70068380717808 214.37005903860222,157.65986752036736 219.81223580343087,154.93877913795305 225.93468466386307,152.21769075553874 234.09794981110596,146.09524189510654 238.85985448033105,142.69388141708865 241.58094286274533,137.9319767478636 243.62175914955608,134.5306162698457 244.98230334076325,131.8095278874314 245.66257543636678,130.44898369622425 246.34284753197036,129.76871160062066 246.34284753197036,129.08843950501708 246.34284753197036,129.08843950501708 246.34284753197036,130.44898369622425 246.34284753197036,133.17007207863855 246.34284753197036,140.6530651302779 244.98230334076325,152.21769075553874 241.58094286274533,167.18367685881745 235.45849400231313,184.19047924890688 227.29522885507015,199.1564653521856 220.49250789903445,210.04081888184282 214.37005903860222,218.2040840290858 208.24761017817002,225.00680498512156 202.12516131773782,229.7687096543466 198.04352874411637,231.80952594115732 196.6829845529092,230.44898174995018 196.6829845529092,228.40816546313943 196.6829845529092,224.32653288951798 197.3632566485128,216.84353983787864 200.08434503092707,210.04081888184282 203.485705508945,203.23809792580707 208.9278822737736,197.11564906537484 216.41087532541295,193.0340164917534 224.5741404726559,189.6326560137355 232.0571335242953,187.5918397269248 238.17958238472747,186.23129553571763 243.62175914955608,184.87075134451047 249.0639359143847,182.14966296209616 251.78502429679898,179.42857457968188 253.82584058360973,176.70748619726754 254.50611267921332,176.70748619726754 255.1863847748169,176.02721410166396 255.86665687042048,175.34694200606037 255.86665687042048,174.6666699104568 256.5469289660241,173.9863978148532 256.5469289660241,174.6666699104568 255.86665687042048,176.70748619726754 253.82584058360973,180.1088466752854 251.10475220119542,184.87075134451047 248.38366381878112,190.99320020494267 245.66257543636678,196.43537696977126 244.98230334076325,199.83673744778918 244.98230334076325,199.83673744778918 244.98230334076325,199.83673744778918 244.98230334076325,199.83673744778918 249.0639359143847,197.11564906537484 255.86665687042048,192.3537443961498 261.9891057308527,188.2721118225284 268.7918266868885,183.5102071533033 274.9142755473207,178.7483024840783 278.99590812094215,174.6666699104568 280.3564523121493,172.62585362364607 280.3564523121493,172.62585362364607 281.0367244077529,172.62585362364607 281.0367244077529,172.62585362364607 281.0367244077529,173.9863978148532 280.3564523121493,177.38775829287113 278.31563602533856,182.14966296209616 276.2748197385278,187.5918397269248 274.2340034517171,191.67347230054622 273.55373135611353,193.0340164917534 273.55373135611353,193.71428858735698 274.2340034517171,192.3537443961498 276.9550918341314,188.2721118225284 282.39726859896,180.1088466752854 287.1591732681851,174.6666699104568 291.24080584180655,170.5850373368353 293.28162212861724,168.5442210500246 293.9618942242208,168.5442210500246 293.9618942242208,168.5442210500246 293.9618942242208,169.22449314562817 293.9618942242208,171.94558152804248 293.9618942242208,175.34694200606037 293.9618942242208,180.1088466752854 293.9618942242208,184.19047924890688 293.9618942242208,185.55102344011405 293.9618942242208,186.23129553571763 293.9618942242208,186.23129553571763 293.9618942242208,185.55102344011405 293.9618942242208,184.87075134451047 294.6421663198244,183.5102071533033 296.0027105110316,180.789118770889 300.084343084653,176.02721410166396 304.16597565827453,171.2653094324389 308.92788032749957,166.50340476321387 310.28842451870673,165.1428605720067 311.64896870991385,165.1428605720067 311.64896870991385,168.5442210500246 311.64896870991385,172.62585362364607 311.64896870991385,177.38775829287113 311.64896870991385,181.46939086649257 310.28842451870673,184.19047924890688 310.28842451870673,186.23129553571763 310.28842451870673,186.91156763132122 310.28842451870673,186.91156763132122 310.28842451870673,186.91156763132122 310.28842451870673,187.5918397269248 310.28842451870673,186.91156763132122 310.9686966143103,186.23129553571763 313.009512901121,184.19047924890688 315.73060128353535,182.14966296209616 318.45168966594963,178.7483024840783 321.17277804836397,175.34694200606037 323.2135943351747,171.94558152804248 323.89386643077825,169.90476524123176 324.57413852638183,167.863948954421 325.2544106219854,167.18367685881745 325.934682717589,166.50340476321387 325.934682717589,166.50340476321387 325.934682717589,166.50340476321387 325.934682717589,168.5442210500246 325.934682717589,171.94558152804248 325.2544106219854,174.6666699104568 323.89386643077825,178.7483024840783 323.2135943351747,182.14966296209616 323.2135943351747,182.8299350576997 323.2135943351747,182.8299350576997 323.2135943351747,182.14966296209616 323.2135943351747,180.1088466752854 325.2544106219854,176.02721410166396 328.65577110000334,169.90476524123176 333.41767576922837,163.78231638079956 336.13876415164265,160.38095590278166 336.13876415164265,159.70068380717808 336.13876415164265,160.38095590278166 336.13876415164265,161.06122799838525 336.13876415164265,162.4217721895924 336.13876415164265,163.78231638079956 336.13876415164265,167.18367685881745 336.13876415164265,170.5850373368353 336.13876415164265,173.9863978148532 335.45849205603906,175.34694200606037 335.45849205603906,176.02721410166396 335.45849205603906,175.34694200606037 336.13876415164265,173.30612571924965 338.1795804384534,170.5850373368353 342.26121301207485,165.1428605720067 347.02311768129994,159.0204117115745 351.78502235052497,153.57823494674588 354.50611073293925,149.4966023731244 355.8666549241464,148.81633027752085 355.18638282854283,149.4966023731244 355.18638282854283,150.176874468728 355.18638282854283,152.8979628511423 354.50611073293925,159.0204117115745 353.82583863733566,163.10204428519597 353.82583863733566,165.82313266761028 353.82583863733566,169.22449314562817 353.14556654173214,171.94558152804248 352.46529444612855,175.34694200606037 351.78502235052497,177.38775829287113 351.78502235052497,178.7483024840783 351.78502235052497,178.7483024840783 352.46529444612855,179.42857457968188 353.82583863733566,179.42857457968188 357.2271991153536,177.38775829287113 361.98910378457856,171.94558152804248 368.7918247406144,163.78231638079956 374.234001505443,154.25850704234946 378.31563407906447,146.09524189510654 381.0367224614788,141.33333722588148 381.7169945570824,139.97279303467434 381.7169945570824,139.97279303467434 381.7169945570824,144.0544256082958 381.0367224614788,150.176874468728 380.3564503658752,156.97959542476377 379.67617827027163,162.4217721895924 378.99590617466805,166.50340476321387 378.99590617466805,168.5442210500246 378.99590617466805,169.22449314562817 379.67617827027163,169.22449314562817 382.39726665268597,167.863948954421 388.51971551311823,163.78231638079956 394.6421643735504,159.0204117115745 399.4040690427754,154.25850704234946 403.4857016163969,150.176874468728 406.88706209441483,145.41496979950296 407.5673341900183,144.0544256082958 407.5673341900183,143.37415351269223 408.2476062856219,143.37415351269223 407.5673341900183,144.73469770389937 406.20678999881125,147.45578608631368 404.8462458076041,152.21769075553874 402.12515742518974,161.06122799838525 397.36325275596465,175.34694200606037 389.8802597043253,195.75510487416767 376.27481779225377,230.44898174995018 368.7918247406144,246.77551204443603 362.66937588018214,258.34013766969684 357.2271991153536,265.8231307213362 351.1047502549214,270.58503539056125 343.621757203282,272.625851677372 333.41767576922837,272.625851677372 321.85305014396755,271.26530748616483 307.5673361362924,269.90476329495766 287.8394453637886,269.90476329495766 284.43808488577076,269.2244911993541 283.0775406945636,268.5442191037505 281.7169965033564,267.86394700814697 282.39726859896,265.8231307213362 283.7578127901672,263.78231443452546 287.8394453637886,261.0612260521112 300.7646151802566,255.61904928728256 325.2544106219854,246.77551204443603 364.0299200713893,231.12925384555373 412.3292388592434,210.7210909774464 458.58774136028666,192.3537443961498 493.28161823606916,180.789118770889 512.3292369129692,176.70748619726754 517.0911415821943,175.34694200606037 517.0911415821943,175.34694200606037 517.0911415821943,175.34694200606037 516.4108694865907,175.34694200606037 516.4108694865907,175.34694200606037 516.4108694865907,175.34694200606037 515.7305973909871,175.34694200606037 515.7305973909871,174.6666699104568 515.0503252953836,174.6666699104568 " style="color: rgb(0, 0, 0);"/></g></svg>